<svg class="rich-terminal" viewBox="0 0 1482 928.4" xmlns="http://www.w3.org/2000/svg">
    <!-- Generated with Rich https://www.textualize.io -->
    <style>

    @font-face {
        font-family: "Fira Code";
        src: local("FiraCode-Regular"),
                url("https://cdnjs.cloudflare.com/ajax/libs/firacode/6.2.0/woff2/FiraCode-Regular.woff2") format("woff2"),
                url("https://cdnjs.cloudflare.com/ajax/libs/firacode/6.2.0/woff/FiraCode-Regular.woff") format("woff");
        font-style: normal;
        font-weight: 400;
    }
    @font-face {
        font-family: "Fira Code";
        src: local("FiraCode-Bold"),
                url("https://cdnjs.cloudflare.com/ajax/libs/firacode/6.2.0/woff2/FiraCode-Bold.woff2") format("woff2"),
                url("https://cdnjs.cloudflare.com/ajax/libs/firacode/6.2.0/woff/FiraCode-Bold.woff") format("woff");
        font-style: bold;
        font-weight: 700;
    }

    .terminal-3333508425-matrix {
        font-family: Fira Code, monospace;
        font-size: 20px;
        line-height: 24.4px;
        font-variant-east-asian: full-width;
    }

    .terminal-3333508425-title {
        font-size: 18px;
        font-weight: bold;
        font-family: arial;
    }

    .terminal-3333508425-r1 { fill: #c5c8c6 }
.terminal-3333508425-r2 { fill: #e0e0e0 }
.terminal-3333508425-r3 { fill: #e0e0e0;font-weight: bold }
.terminal-3333508425-r4 { fill: #1e1e1e }
.terminal-3333508425-r5 { fill: #242f38 }
.terminal-3333508425-r6 { fill: #a5a5a5 }
.terminal-3333508425-r7 { fill: #777777 }
.terminal-3333508425-r8 { fill: #0178d4 }
.terminal-3333508425-r9 { fill: #121212 }
.terminal-3333508425-r10 { fill: #191919 }
.terminal-3333508425-r11 { fill: #7f7f7f }
.terminal-3333508425-r12 { fill: #6db2ff }
.terminal-3333508425-r13 { fill: #2d2d2d }
.terminal-3333508425-r14 { fill: #ddedf9;font-weight: bold }
.terminal-3333508425-r15 { fill: #004295 }
.terminal-3333508425-r16 { fill: #0d0d0d }
.terminal-3333508425-r17 { fill: #ffa62b;font-weight: bold }
    </style>

    <defs>
    <clipPath id="terminal-3333508425-clip-terminal">
      <rect x="0" y="0" width="1463.0" height="877.4" />
    </clipPath>
    <clipPath id="terminal-3333508425-line-0">
    <rect x="0" y="1.5" width="1464" height="24.65"/>
            </clipPath>
<clipPath id="terminal-3333508425-line-1">
    <rect x="0" y="25.9" width="1464" height="24.65"/>
            </clipPath>
<clipPath id="terminal-3333508425-line-2">
    <rect x="0" y="50.3" width="1464" height="24.65"/>
            </clipPath>
<clipPath id="terminal-3333508425-line-3">
    <rect x="0" y="74.7" width="1464" height="24.65"/>
            </clipPath>
<clipPath id="terminal-3333508425-line-4">
    <rect x="0" y="99.1" width="1464" height="24.65"/>
            </clipPath>
<clipPath id="terminal-3333508425-line-5">
    <rect x="0" y="123.5" width="1464" height="24.65"/>
            </clipPath>
<clipPath id="terminal-3333508425-line-6">
    <rect x="0" y="147.9" width="1464" height="24.65"/>
            </clipPath>
<clipPath id="terminal-3333508425-line-7">
    <rect x="0" y="172.3" width="1464" height="24.65"/>
            </clipPath>
<clipPath id="terminal-3333508425-line-8">
    <rect x="0" y="196.7" width="1464" height="24.65"/>
            </clipPath>
<clipPath id="terminal-3333508425-line-9">
    <rect x="0" y="221.1" width="1464" height="24.65"/>
            </clipPath>
<clipPath id="terminal-3333508425-line-10">
    <rect x="0" y="245.5" width="1464" height="24.65"/>
            </clipPath>
<clipPath id="terminal-3333508425-line-11">
    <rect x="0" y="269.9" width="1464" height="24.65"/>
            </clipPath>
<clipPath id="terminal-3333508425-line-12">
    <rect x="0" y="294.3" width="1464" height="24.65"/>
            </clipPath>
<clipPath id="terminal-3333508425-line-13">
    <rect x="0" y="318.7" width="1464" height="24.65"/>
            </clipPath>
<clipPath id="terminal-3333508425-line-14">
    <rect x="0" y="343.1" width="1464" height="24.65"/>
            </clipPath>
<clipPath id="terminal-3333508425-line-15">
    <rect x="0" y="367.5" width="1464" height="24.65"/>
            </clipPath>
<clipPath id="terminal-3333508425-line-16">
    <rect x="0" y="391.9" width="1464" height="24.65"/>
            </clipPath>
<clipPath id="terminal-3333508425-line-17">
    <rect x="0" y="416.3" width="1464" height="24.65"/>
            </clipPath>
<clipPath id="terminal-3333508425-line-18">
    <rect x="0" y="440.7" width="1464" height="24.65"/>
            </clipPath>
<clipPath id="terminal-3333508425-line-19">
    <rect x="0" y="465.1" width="1464" height="24.65"/>
            </clipPath>
<clipPath id="terminal-3333508425-line-20">
    <rect x="0" y="489.5" width="1464" height="24.65"/>
            </clipPath>
<clipPath id="terminal-3333508425-line-21">
    <rect x="0" y="513.9" width="1464" height="24.65"/>
            </clipPath>
<clipPath id="terminal-3333508425-line-22">
    <rect x="0" y="538.3" width="1464" height="24.65"/>
            </clipPath>
<clipPath id="terminal-3333508425-line-23">
    <rect x="0" y="562.7" width="1464" height="24.65"/>
            </clipPath>
<clipPath id="terminal-3333508425-line-24">
    <rect x="0" y="587.1" width="1464" height="24.65"/>
            </clipPath>
<clipPath id="terminal-3333508425-line-25">
    <rect x="0" y="611.5" width="1464" height="24.65"/>
            </clipPath>
<clipPath id="terminal-3333508425-line-26">
    <rect x="0" y="635.9" width="1464" height="24.65"/>
            </clipPath>
<clipPath id="terminal-3333508425-line-27">
    <rect x="0" y="660.3" width="1464" height="24.65"/>
            </clipPath>
<clipPath id="terminal-3333508425-line-28">
    <rect x="0" y="684.7" width="1464" height="24.65"/>
            </clipPath>
<clipPath id="terminal-3333508425-line-29">
    <rect x="0" y="709.1" width="1464" height="24.65"/>
            </clipPath>
<clipPath id="terminal-3333508425-line-30">
    <rect x="0" y="733.5" width="1464" height="24.65"/>
            </clipPath>
<clipPath id="terminal-3333508425-line-31">
    <rect x="0" y="757.9" width="1464" height="24.65"/>
            </clipPath>
<clipPath id="terminal-3333508425-line-32">
    <rect x="0" y="782.3" width="1464" height="24.65"/>
            </clipPath>
<clipPath id="terminal-3333508425-line-33">
    <rect x="0" y="806.7" width="1464" height="24.65"/>
            </clipPath>
<clipPath id="terminal-3333508425-line-34">
    <rect x="0" y="831.1" width="1464" height="24.65"/>
            </clipPath>
    </defs>

    <rect fill="#292929" stroke="rgba(255,255,255,0.35)" stroke-width="1" x="1" y="1" width="1480" height="926.4" rx="8"/><text class="terminal-3333508425-title" fill="#c5c8c6" text-anchor="middle" x="740" y="27">fomo&#160;&#160;·&#160;&#160;Azure&#160;PIM&#160;&#160;[DEMO]&#160;&#160;·&#160;&#160;demo@contoso.com&#160;&#160;·&#160;&#160;Contoso&#160;Corp</text>
            <g transform="translate(26,22)">
            <circle cx="0" cy="0" r="7" fill="#ff5f57"/>
            <circle cx="22" cy="0" r="7" fill="#febc2e"/>
            <circle cx="44" cy="0" r="7" fill="#28c840"/>
            </g>
        
    <g transform="translate(9, 41)" clip-path="url(#terminal-3333508425-clip-terminal)">
    <rect fill="#242f38" x="0" y="1.5" width="12.2" height="24.65" shape-rendering="crispEdges"/><rect fill="#242f38" x="12.2" y="1.5" width="12.2" height="24.65" shape-rendering="crispEdges"/><rect fill="#242f38" x="24.4" y="1.5" width="61" height="24.65" shape-rendering="crispEdges"/><rect fill="#242f38" x="85.4" y="1.5" width="12.2" height="24.65" shape-rendering="crispEdges"/><rect fill="#242f38" x="97.6" y="1.5" width="231.8" height="24.65" shape-rendering="crispEdges"/><rect fill="#242f38" x="329.4" y="1.5" width="780.8" height="24.65" shape-rendering="crispEdges"/><rect fill="#242f38" x="1110.2" y="1.5" width="231.8" height="24.65" shape-rendering="crispEdges"/><rect fill="#242f38" x="1342" y="1.5" width="12.2" height="24.65" shape-rendering="crispEdges"/><rect fill="#242f38" x="1354.2" y="1.5" width="0" height="24.65" shape-rendering="crispEdges"/><rect fill="#242f38" x="1354.2" y="1.5" width="97.6" height="24.65" shape-rendering="crispEdges"/><rect fill="#242f38" x="1451.8" y="1.5" width="12.2" height="24.65" shape-rendering="crispEdges"/><rect fill="#1e1e1e" x="0" y="25.9" width="1464" height="24.65" shape-rendering="crispEdges"/><rect fill="#1e1e1e" x="0" y="50.3" width="24.4" height="24.65" shape-rendering="crispEdges"/><rect fill="#1e1e1e" x="24.4" y="50.3" width="134.2" height="24.65" shape-rendering="crispEdges"/><rect fill="#1e1e1e" x="158.6" y="50.3" width="12.2" height="24.65" shape-rendering="crispEdges"/><rect fill="#1e1e1e" x="170.8" y="50.3" width="109.8" height="24.65" shape-rendering="crispEdges"/><rect fill="#1e1e1e" x="280.6" y="50.3" width="1159" height="24.65" shape-rendering="crispEdges"/><rect fill="#1e1e1e" x="1439.6" y="50.3" width="24.4" height="24.65" shape-rendering="crispEdges"/><rect fill="#1e1e1e" x="0" y="74.7" width="24.4" height="24.65" shape-rendering="crispEdges"/><rect fill="#242f38" x="24.4" y="74.7" width="12.2" height="24.65" shape-rendering="crispEdges"/><rect fill="#1e1e1e" x="36.6" y="74.7" width="1390.8" height="24.65" shape-rendering="crispEdges"/><rect fill="#1e1e1e" x="1427.4" y="74.7" width="12.2" height="24.65" shape-rendering="crispEdges"/><rect fill="#1e1e1e" x="1439.6" y="74.7" width="24.4" height="24.65" shape-rendering="crispEdges"/><rect fill="#1e1e1e" x="0" y="99.1" width="24.4" height="24.65" shape-rendering="crispEdges"/><rect fill="#242f38" x="24.4" y="99.1" width="12.2" height="24.65" shape-rendering="crispEdges"/><rect fill="#242f38" x="36.6" y="99.1" width="244" height="24.65" shape-rendering="crispEdges"/><rect fill="#242f38" x="280.6" y="99.1" width="244" height="24.65" shape-rendering="crispEdges"/><rect fill="#242f38" x="524.6" y="99.1" width="146.4" height="24.65" shape-rendering="crispEdges"/><rect fill="#242f38" x="671" y="99.1" width="463.6" height="24.65" shape-rendering="crispEdges"/><rect fill="#222a31" x="1134.6" y="99.1" width="292.8" height="24.65" shape-rendering="crispEdges"/><rect fill="#1e1e1e" x="1427.4" y="99.1" width="12.2" height="24.65" shape-rendering="crispEdges"/><rect fill="#1e1e1e" x="1439.6" y="99.1" width="24.4" height="24.65" shape-rendering="crispEdges"/><rect fill="#1e1e1e" x="0" y="123.5" width="24.4" height="24.65" shape-rendering="crispEdges"/><rect fill="#242f38" x="24.4" y="123.5" width="12.2" height="24.65" shape-rendering="crispEdges"/><rect fill="#1e1e1e" x="36.6" y="123.5" width="244" height="24.65" shape-rendering="crispEdges"/><rect fill="#1e1e1e" x="280.6" y="123.5" width="244" height="24.65" shape-rendering="crispEdges"/><rect fill="#1e1e1e" x="524.6" y="123.5" width="146.4" height="24.65" shape-rendering="crispEdges"/><rect fill="#1e1e1e" x="671" y="123.5" width="463.6" height="24.65" shape-rendering="crispEdges"/><rect fill="#1e1e1e" x="1134.6" y="123.5" width="292.8" height="24.65" shape-rendering="crispEdges"/><rect fill="#1e1e1e" x="1427.4" y="123.5" width="12.2" height="24.65" shape-rendering="crispEdges"/><rect fill="#1e1e1e" x="1439.6" y="123.5" width="24.4" height="24.65" shape-rendering="crispEdges"/><rect fill="#1e1e1e" x="0" y="147.9" width="24.4" height="24.65" shape-rendering="crispEdges"/><rect fill="#242f38" x="24.4" y="147.9" width="12.2" height="24.65" shape-rendering="crispEdges"/><rect fill="#1e1e1e" x="36.6" y="147.9" width="244" height="24.65" shape-rendering="crispEdges"/><rect fill="#1e1e1e" x="280.6" y="147.9" width="244" height="24.65" shape-rendering="crispEdges"/><rect fill="#1e1e1e" x="524.6" y="147.9" width="146.4" height="24.65" shape-rendering="crispEdges"/><rect fill="#1e1e1e" x="671" y="147.9" width="463.6" height="24.65" shape-rendering="crispEdges"/><rect fill="#1e1e1e" x="1134.6" y="147.9" width="292.8" height="24.65" shape-rendering="crispEdges"/><rect fill="#1e1e1e" x="1427.4" y="147.9" width="12.2" height="24.65" shape-rendering="crispEdges"/><rect fill="#1e1e1e" x="1439.6" y="147.9" width="24.4" height="24.65" shape-rendering="crispEdges"/><rect fill="#1e1e1e" x="0" y="172.3" width="24.4" height="24.65" shape-rendering="crispEdges"/><rect fill="#242f38" x="24.4" y="172.3" width="12.2" height="24.65" shape-rendering="crispEdges"/><rect fill="#1e1e1e" x="36.6" y="172.3" width="244" height="24.65" shape-rendering="crispEdges"/><rect fill="#1e1e1e" x="280.6" y="172.3" width="244" height="24.65" shape-rendering="crispEdges"/><rect fill="#1e1e1e" x="524.6" y="172.3" width="146.4" height="24.65" shape-rendering="crispEdges"/><rect fill="#1e1e1e" x="671" y="172.3" width="463.6" height="24.65" shape-rendering="crispEdges"/><rect fill="#1e1e1e" x="1134.6" y="172.3" width="292.8" height="24.65" shape-rendering="crispEdges"/><rect fill="#1e1e1e" x="1427.4" y="172.3" width="12.2" height="24.65" shape-rendering="crispEdges"/><rect fill="#1e1e1e" x="1439.6" y="172.3" width="24.4" height="24.65" shape-rendering="crispEdges"/><rect fill="#1e1e1e" x="0" y="196.7" width="24.4" height="24.65" shape-rendering="crispEdges"/><rect fill="#242f38" x="24.4" y="196.7" width="12.2" height="24.65" shape-rendering="crispEdges"/><rect fill="#1e1e1e" x="36.6" y="196.7" width="1390.8" height="24.65" shape-rendering="crispEdges"/><rect fill="#1e1e1e" x="1427.4" y="196.7" width="12.2" height="24.65" shape-rendering="crispEdges"/><rect fill="#1e1e1e" x="1439.6" y="196.7" width="24.4" height="24.65" shape-rendering="crispEdges"/><rect fill="#1e1e1e" x="0" y="221.1" width="24.4" height="24.65" shape-rendering="crispEdges"/><rect fill="#1e1e1e" x="24.4" y="221.1" width="1415.2" height="24.65" shape-rendering="crispEdges"/><rect fill="#1e1e1e" x="1439.6" y="221.1" width="24.4" height="24.65" shape-rendering="crispEdges"/><rect fill="#1e1e1e" x="0" y="245.5" width="24.4" height="24.65" shape-rendering="crispEdges"/><rect fill="#1e1e1e" x="24.4" y="245.5" width="1415.2" height="24.65" shape-rendering="crispEdges"/><rect fill="#1e1e1e" x="1439.6" y="245.5" width="24.4" height="24.65" shape-rendering="crispEdges"/><rect fill="#1e1e1e" x="0" y="269.9" width="24.4" height="24.65" shape-rendering="crispEdges"/><rect fill="#1e1e1e" x="24.4" y="269.9" width="183" height="24.65" shape-rendering="crispEdges"/><rect fill="#1e1e1e" x="207.4" y="269.9" width="427" height="24.65" shape-rendering="crispEdges"/><rect fill="#1e1e1e" x="634.4" y="269.9" width="805.2" height="24.65" shape-rendering="crispEdges"/><rect fill="#1e1e1e" x="1439.6" y="269.9" width="24.4" height="24.65" shape-rendering="crispEdges"/><rect fill="#1e1e1e" x="0" y="294.3" width="24.4" height="24.65" shape-rendering="crispEdges"/><rect fill="#0178d4" x="24.4" y="294.3" width="12.2" height="24.65" shape-rendering="crispEdges"/><rect fill="#272727" x="36.6" y="294.3" width="1390.8" height="24.65" shape-rendering="crispEdges"/><rect fill="#1e1e1e" x="1427.4" y="294.3" width="12.2" height="24.65" shape-rendering="crispEdges"/><rect fill="#1e1e1e" x="1439.6" y="294.3" width="24.4" height="24.65" shape-rendering="crispEdges"/><rect fill="#1e1e1e" x="0" y="318.7" width="24.4" height="24.65" shape-rendering="crispEdges"/><rect fill="#0178d4" x="24.4" y="318.7" width="12.2" height="24.65" shape-rendering="crispEdges"/><rect fill="#272727" x="36.6" y="318.7" width="24.4" height="24.65" shape-rendering="crispEdges"/><rect fill="#272727" x="61" y="318.7" width="488" height="24.65" shape-rendering="crispEdges"/><rect fill="#e0e0e0" x="549" y="318.7" width="12.2" height="24.65" shape-rendering="crispEdges"/><rect fill="#272727" x="561.2" y="318.7" width="841.8" height="24.65" shape-rendering="crispEdges"/><rect fill="#272727" x="1403" y="318.7" width="24.4" height="24.65" shape-rendering="crispEdges"/><rect fill="#1e1e1e" x="1427.4" y="318.7" width="12.2" height="24.65" shape-rendering="crispEdges"/><rect fill="#1e1e1e" x="1439.6" y="318.7" width="24.4" height="24.65" shape-rendering="crispEdges"/><rect fill="#1e1e1e" x="0" y="343.1" width="24.4" height="24.65" shape-rendering="crispEdges"/><rect fill="#0178d4" x="24.4" y="343.1" width="12.2" height="24.65" shape-rendering="crispEdges"/><rect fill="#272727" x="36.6" y="343.1" width="1390.8" height="24.65" shape-rendering="crispEdges"/><rect fill="#1e1e1e" x="1427.4" y="343.1" width="12.2" height="24.65" shape-rendering="crispEdges"/><rect fill="#1e1e1e" x="1439.6" y="343.1" width="24.4" height="24.65" shape-rendering="crispEdges"/><rect fill="#1e1e1e" x="0" y="367.5" width="24.4" height="24.65" shape-rendering="crispEdges"/><rect fill="#1e1e1e" x="24.4" y="367.5" width="1415.2" height="24.65" shape-rendering="crispEdges"/><rect fill="#1e1e1e" x="1439.6" y="367.5" width="24.4" height="24.65" shape-rendering="crispEdges"/><rect fill="#1e1e1e" x="0" y="391.9" width="24.4" height="24.65" shape-rendering="crispEdges"/><rect fill="#1e1e1e" x="24.4" y="391.9" width="97.6" height="24.65" shape-rendering="crispEdges"/><rect fill="#1e1e1e" x="122" y="391.9" width="1317.6" height="24.65" shape-rendering="crispEdges"/><rect fill="#1e1e1e" x="1439.6" y="391.9" width="24.4" height="24.65" shape-rendering="crispEdges"/><rect fill="#1e1e1e" x="0" y="416.3" width="24.4" height="24.65" shape-rendering="crispEdges"/><rect fill="#191919" x="24.4" y="416.3" width="12.2" height="24.65" shape-rendering="crispEdges"/><rect fill="#1e1e1e" x="36.6" y="416.3" width="1390.8" height="24.65" shape-rendering="crispEdges"/><rect fill="#1e1e1e" x="1427.4" y="416.3" width="12.2" height="24.65" shape-rendering="crispEdges"/><rect fill="#1e1e1e" x="1439.6" y="416.3" width="24.4" height="24.65" shape-rendering="crispEdges"/><rect fill="#1e1e1e" x="0" y="440.7" width="24.4" height="24.65" shape-rendering="crispEdges"/><rect fill="#191919" x="24.4" y="440.7" width="12.2" height="24.65" shape-rendering="crispEdges"/><rect fill="#1e1e1e" x="36.6" y="440.7" width="24.4" height="24.65" shape-rendering="crispEdges"/><rect fill="#1e1e1e" x="61" y="440.7" width="73.2" height="24.65" shape-rendering="crispEdges"/><rect fill="#1e1e1e" x="134.2" y="440.7" width="1244.4" height="24.65" shape-rendering="crispEdges"/><rect fill="#1e1e1e" x="1378.6" y="440.7" width="12.2" height="24.65" shape-rendering="crispEdges"/><rect fill="#1e1e1e" x="1390.8" y="440.7" width="12.2" height="24.65" shape-rendering="crispEdges"/><rect fill="#1e1e1e" x="1403" y="440.7" width="24.4" height="24.65" shape-rendering="crispEdges"/><rect fill="#1e1e1e" x="1427.4" y="440.7" width="12.2" height="24.65" shape-rendering="crispEdges"/><rect fill="#1e1e1e" x="1439.6" y="440.7" width="24.4" height="24.65" shape-rendering="crispEdges"/><rect fill="#1e1e1e" x="0" y="465.1" width="24.4" height="24.65" shape-rendering="crispEdges"/><rect fill="#191919" x="24.4" y="465.1" width="12.2" height="24.65" shape-rendering="crispEdges"/><rect fill="#1e1e1e" x="36.6" y="465.1" width="1390.8" height="24.65" shape-rendering="crispEdges"/><rect fill="#1e1e1e" x="1427.4" y="465.1" width="12.2" height="24.65" shape-rendering="crispEdges"/><rect fill="#1e1e1e" x="1439.6" y="465.1" width="24.4" height="24.65" shape-rendering="crispEdges"/><rect fill="#1e1e1e" x="0" y="489.5" width="24.4" height="24.65" shape-rendering="crispEdges"/><rect fill="#1e1e1e" x="24.4" y="489.5" width="1415.2" height="24.65" shape-rendering="crispEdges"/><rect fill="#1e1e1e" x="1439.6" y="489.5" width="24.4" height="24.65" shape-rendering="crispEdges"/><rect fill="#1e1e1e" x="0" y="513.9" width="24.4" height="24.65" shape-rendering="crispEdges"/><rect fill="#1e1e1e" x="24.4" y="513.9" width="1415.2" height="24.65" shape-rendering="crispEdges"/><rect fill="#1e1e1e" x="1439.6" y="513.9" width="24.4" height="24.65" shape-rendering="crispEdges"/><rect fill="#1e1e1e" x="0" y="538.3" width="24.4" height="24.65" shape-rendering="crispEdges"/><rect fill="#1e1e1e" x="24.4" y="538.3" width="1415.2" height="24.65" shape-rendering="crispEdges"/><rect fill="#1e1e1e" x="1439.6" y="538.3" width="24.4" height="24.65" shape-rendering="crispEdges"/><rect fill="#1e1e1e" x="0" y="562.7" width="24.4" height="24.65" shape-rendering="crispEdges"/><rect fill="#1e1e1e" x="24.4" y="562.7" width="1415.2" height="24.65" shape-rendering="crispEdges"/><rect fill="#1e1e1e" x="1439.6" y="562.7" width="24.4" height="24.65" shape-rendering="crispEdges"/><rect fill="#1e1e1e" x="0" y="587.1" width="24.4" height="24.65" shape-rendering="crispEdges"/><rect fill="#1e1e1e" x="24.4" y="587.1" width="1415.2" height="24.65" shape-rendering="crispEdges"/><rect fill="#1e1e1e" x="1439.6" y="587.1" width="24.4" height="24.65" shape-rendering="crispEdges"/><rect fill="#1e1e1e" x="0" y="611.5" width="24.4" height="24.65" shape-rendering="crispEdges"/><rect fill="#1e1e1e" x="24.4" y="611.5" width="1415.2" height="24.65" shape-rendering="crispEdges"/><rect fill="#1e1e1e" x="1439.6" y="611.5" width="24.4" height="24.65" shape-rendering="crispEdges"/><rect fill="#1e1e1e" x="0" y="635.9" width="24.4" height="24.65" shape-rendering="crispEdges"/><rect fill="#1e1e1e" x="24.4" y="635.9" width="1415.2" height="24.65" shape-rendering="crispEdges"/><rect fill="#1e1e1e" x="1439.6" y="635.9" width="24.4" height="24.65" shape-rendering="crispEdges"/><rect fill="#1e1e1e" x="0" y="660.3" width="24.4" height="24.65" shape-rendering="crispEdges"/><rect fill="#1e1e1e" x="24.4" y="660.3" width="1415.2" height="24.65" shape-rendering="crispEdges"/><rect fill="#1e1e1e" x="1439.6" y="660.3" width="24.4" height="24.65" shape-rendering="crispEdges"/><rect fill="#1e1e1e" x="0" y="684.7" width="24.4" height="24.65" shape-rendering="crispEdges"/><rect fill="#1e1e1e" x="24.4" y="684.7" width="1415.2" height="24.65" shape-rendering="crispEdges"/><rect fill="#1e1e1e" x="1439.6" y="684.7" width="24.4" height="24.65" shape-rendering="crispEdges"/><rect fill="#1e1e1e" x="0" y="709.1" width="24.4" height="24.65" shape-rendering="crispEdges"/><rect fill="#1e1e1e" x="24.4" y="709.1" width="1415.2" height="24.65" shape-rendering="crispEdges"/><rect fill="#1e1e1e" x="1439.6" y="709.1" width="24.4" height="24.65" shape-rendering="crispEdges"/><rect fill="#1e1e1e" x="0" y="733.5" width="24.4" height="24.65" shape-rendering="crispEdges"/><rect fill="#1e1e1e" x="24.4" y="733.5" width="1415.2" height="24.65" shape-rendering="crispEdges"/><rect fill="#1e1e1e" x="1439.6" y="733.5" width="24.4" height="24.65" shape-rendering="crispEdges"/><rect fill="#1e1e1e" x="0" y="757.9" width="24.4" height="24.65" shape-rendering="crispEdges"/><rect fill="#0178d4" x="24.4" y="757.9" width="195.2" height="24.65" shape-rendering="crispEdges"/><rect fill="#1e1e1e" x="219.6" y="757.9" width="24.4" height="24.65" shape-rendering="crispEdges"/><rect fill="#1e1e1e" x="244" y="757.9" width="195.2" height="24.65" shape-rendering="crispEdges"/><rect fill="#1e1e1e" x="439.2" y="757.9" width="1000.4" height="24.65" shape-rendering="crispEdges"/><rect fill="#1e1e1e" x="1439.6" y="757.9" width="24.4" height="24.65" shape-rendering="crispEdges"/><rect fill="#1e1e1e" x="0" y="782.3" width="24.4" height="24.65" shape-rendering="crispEdges"/><rect fill="#0178d4" x="24.4" y="782.3" width="36.6" height="24.65" shape-rendering="crispEdges"/><rect fill="#0178d4" x="61" y="782.3" width="122" height="24.65" shape-rendering="crispEdges"/><rect fill="#0178d4" x="183" y="782.3" width="36.6" height="24.65" shape-rendering="crispEdges"/><rect fill="#1e1e1e" x="219.6" y="782.3" width="24.4" height="24.65" shape-rendering="crispEdges"/><rect fill="#1e1e1e" x="244" y="782.3" width="61" height="24.65" shape-rendering="crispEdges"/><rect fill="#1e1e1e" x="305" y="782.3" width="73.2" height="24.65" shape-rendering="crispEdges"/><rect fill="#1e1e1e" x="378.2" y="782.3" width="61" height="24.65" shape-rendering="crispEdges"/><rect fill="#1e1e1e" x="439.2" y="782.3" width="1000.4" height="24.65" shape-rendering="crispEdges"/><rect fill="#1e1e1e" x="1439.6" y="782.3" width="24.4" height="24.65" shape-rendering="crispEdges"/><rect fill="#1e1e1e" x="0" y="806.7" width="24.4" height="24.65" shape-rendering="crispEdges"/><rect fill="#0178d4" x="24.4" y="806.7" width="195.2" height="24.65" shape-rendering="crispEdges"/><rect fill="#1e1e1e" x="219.6" y="806.7" width="24.4" height="24.65" shape-rendering="crispEdges"/><rect fill="#1e1e1e" x="244" y="806.7" width="195.2" height="24.65" shape-rendering="crispEdges"/><rect fill="#1e1e1e" x="439.2" y="806.7" width="1000.4" height="24.65" shape-rendering="crispEdges"/><rect fill="#1e1e1e" x="1439.6" y="806.7" width="24.4" height="24.65" shape-rendering="crispEdges"/><rect fill="#1e1e1e" x="0" y="831.1" width="1464" height="24.65" shape-rendering="crispEdges"/><rect fill="#242f38" x="0" y="855.5" width="61" height="24.65" shape-rendering="crispEdges"/><rect fill="#242f38" x="61" y="855.5" width="61" height="24.65" shape-rendering="crispEdges"/><rect fill="#242f38" x="122" y="855.5" width="1342" height="24.65" shape-rendering="crispEdges"/>
    <g class="terminal-3333508425-matrix">
    <text class="terminal-3333508425-r2" x="12.2" y="20" textLength="12.2" clip-path="url(#terminal-3333508425-line-0)">⭘</text><text class="terminal-3333508425-r2" x="329.4" y="20" textLength="780.8" clip-path="url(#terminal-3333508425-line-0)">fomo&#160;&#160;·&#160;&#160;Azure&#160;PIM&#160;&#160;[DEMO]&#160;&#160;·&#160;&#160;demo@contoso.com&#160;&#160;·&#160;&#160;Contoso&#160;Corp</text><text class="terminal-3333508425-r1" x="1464" y="20" textLength="12.2" clip-path="url(#terminal-3333508425-line-0)">
</text><text class="terminal-3333508425-r1" x="1464" y="44.4" textLength="12.2" clip-path="url(#terminal-3333508425-line-1)">
</text><text class="terminal-3333508425-r2" x="24.4" y="68.8" textLength="134.2" clip-path="url(#terminal-3333508425-line-2)">Activating&#160;</text><text class="terminal-3333508425-r3" x="158.6" y="68.8" textLength="12.2" clip-path="url(#terminal-3333508425-line-2)">3</text><text class="terminal-3333508425-r2" x="170.8" y="68.8" textLength="109.8" clip-path="url(#terminal-3333508425-line-2)">&#160;role(s):</text><text class="terminal-3333508425-r1" x="1464" y="68.8" textLength="12.2" clip-path="url(#terminal-3333508425-line-2)">
</text><text class="terminal-3333508425-r4" x="24.4" y="93.2" textLength="12.2" clip-path="url(#terminal-3333508425-line-3)">▊</text><text class="terminal-3333508425-r5" x="36.6" y="93.2" textLength="1390.8" clip-path="url(#terminal-3333508425-line-3)">▔▔▔▔▔▔▔▔▔▔▔▔▔▔▔▔▔▔▔▔▔▔▔▔▔▔▔▔▔▔▔▔▔▔▔▔▔▔▔▔▔▔▔▔▔▔▔▔▔▔▔▔▔▔▔▔▔▔▔▔▔▔▔▔▔▔▔▔▔▔▔▔▔▔▔▔▔▔▔▔▔▔▔▔▔▔▔▔▔▔▔▔▔▔▔▔▔▔▔▔▔▔▔▔▔▔▔▔▔▔▔▔▔▔</text><text class="terminal-3333508425-r5" x="1427.4" y="93.2" textLength="12.2" clip-path="url(#terminal-3333508425-line-3)">▎</text><text class="terminal-3333508425-r1" x="1464" y="93.2" textLength="12.2" clip-path="url(#terminal-3333508425-line-3)">
</text><text class="terminal-3333508425-r4" x="24.4" y="117.6" textLength="12.2" clip-path="url(#terminal-3333508425-line-4)">▊</text><text class="terminal-3333508425-r3" x="36.6" y="117.6" textLength="244" clip-path="url(#terminal-3333508425-line-4)">&#160;Role&#160;&#160;&#160;&#160;&#160;&#160;&#160;&#160;&#160;&#160;&#160;&#160;&#160;&#160;&#160;</text><text class="terminal-3333508425-r3" x="280.6" y="117.6" textLength="244" clip-path="url(#terminal-3333508425-line-4)">&#160;Scope&#160;&#160;&#160;&#160;&#160;&#160;&#160;&#160;&#160;&#160;&#160;&#160;&#160;&#160;</text><text class="terminal-3333508425-r3" x="524.6" y="117.6" textLength="146.4" clip-path="url(#terminal-3333508425-line-4)">&#160;Expires&#160;&#160;&#160;&#160;</text><text class="terminal-3333508425-r3" x="671" y="117.6" textLength="463.6" clip-path="url(#terminal-3333508425-line-4)">&#160;Status&#160;&#160;&#160;&#160;&#160;&#160;&#160;&#160;&#160;&#160;&#160;&#160;&#160;&#160;&#160;&#160;&#160;&#160;&#160;&#160;&#160;&#160;&#160;&#160;&#160;&#160;&#160;&#160;&#160;&#160;&#160;</text><text class="terminal-3333508425-r5" x="1427.4" y="117.6" textLength="12.2" clip-path="url(#terminal-3333508425-line-4)">▎</text><text class="terminal-3333508425-r1" x="1464" y="117.6" textLength="12.2" clip-path="url(#terminal-3333508425-line-4)">
</text><text class="terminal-3333508425-r4" x="24.4" y="142" textLength="12.2" clip-path="url(#terminal-3333508425-line-5)">▊</text><text class="terminal-3333508425-r2" x="36.6" y="142" textLength="244" clip-path="url(#terminal-3333508425-line-5)">&#160;AKS&#160;Cluster&#160;Admin&#160;&#160;</text><text class="terminal-3333508425-r2" x="280.6" y="142" textLength="244" clip-path="url(#terminal-3333508425-line-5)">&#160;rg-aks-prod&#160;&#160;&#160;&#160;&#160;&#160;&#160;&#160;</text><text class="terminal-3333508425-r2" x="524.6" y="142" textLength="146.4" clip-path="url(#terminal-3333508425-line-5)">&#160;2026-12-31&#160;</text><text class="terminal-3333508425-r2" x="671" y="142" textLength="463.6" clip-path="url(#terminal-3333508425-line-5)">&#160;—&#160;&#160;&#160;&#160;&#160;&#160;&#160;&#160;&#160;&#160;&#160;&#160;&#160;&#160;&#160;&#160;&#160;&#160;&#160;&#160;&#160;&#160;&#160;&#160;&#160;&#160;&#160;&#160;&#160;&#160;&#160;&#160;&#160;&#160;&#160;&#160;</text><text class="terminal-3333508425-r5" x="1427.4" y="142" textLength="12.2" clip-path="url(#terminal-3333508425-line-5)">▎</text><text class="terminal-3333508425-r1" x="1464" y="142" textLength="12.2" clip-path="url(#terminal-3333508425-line-5)">
</text><text class="terminal-3333508425-r4" x="24.4" y="166.4" textLength="12.2" clip-path="url(#terminal-3333508425-line-6)">▊</text><text class="terminal-3333508425-r2" x="36.6" y="166.4" textLength="244" clip-path="url(#terminal-3333508425-line-6)">&#160;Contributor&#160;&#160;&#160;&#160;&#160;&#160;&#160;&#160;</text><text class="terminal-3333508425-r2" x="280.6" y="166.4" textLength="244" clip-path="url(#terminal-3333508425-line-6)">&#160;Contoso&#160;Production&#160;</text><text class="terminal-3333508425-r2" x="524.6" y="166.4" textLength="146.4" clip-path="url(#terminal-3333508425-line-6)">&#160;2026-09-30&#160;</text><text class="terminal-3333508425-r2" x="671" y="166.4" textLength="463.6" clip-path="url(#terminal-3333508425-line-6)">&#160;—&#160;&#160;&#160;&#160;&#160;&#160;&#160;&#160;&#160;&#160;&#160;&#160;&#160;&#160;&#160;&#160;&#160;&#160;&#160;&#160;&#160;&#160;&#160;&#160;&#160;&#160;&#160;&#160;&#160;&#160;&#160;&#160;&#160;&#160;&#160;&#160;</text><text class="terminal-3333508425-r5" x="1427.4" y="166.4" textLength="12.2" clip-path="url(#terminal-3333508425-line-6)">▎</text><text class="terminal-3333508425-r1" x="1464" y="166.4" textLength="12.2" clip-path="url(#terminal-3333508425-line-6)">
</text><text class="terminal-3333508425-r4" x="24.4" y="190.8" textLength="12.2" clip-path="url(#terminal-3333508425-line-7)">▊</text><text class="terminal-3333508425-r2" x="36.6" y="190.8" textLength="244" clip-path="url(#terminal-3333508425-line-7)">&#160;Cosmos&#160;DB&#160;Operator&#160;</text><text class="terminal-3333508425-r2" x="280.6" y="190.8" textLength="244" clip-path="url(#terminal-3333508425-line-7)">&#160;rg-analytics&#160;&#160;&#160;&#160;&#160;&#160;&#160;</text><text class="terminal-3333508425-r2" x="524.6" y="190.8" textLength="146.4" clip-path="url(#terminal-3333508425-line-7)">&#160;2026-10-01&#160;</text><text class="terminal-3333508425-r2" x="671" y="190.8" textLength="463.6" clip-path="url(#terminal-3333508425-line-7)">&#160;—&#160;&#160;&#160;&#160;&#160;&#160;&#160;&#160;&#160;&#160;&#160;&#160;&#160;&#160;&#160;&#160;&#160;&#160;&#160;&#160;&#160;&#160;&#160;&#160;&#160;&#160;&#160;&#160;&#160;&#160;&#160;&#160;&#160;&#160;&#160;&#160;</text><text class="terminal-3333508425-r5" x="1427.4" y="190.8" textLength="12.2" clip-path="url(#terminal-3333508425-line-7)">▎</text><text class="terminal-3333508425-r1" x="1464" y="190.8" textLength="12.2" clip-path="url(#terminal-3333508425-line-7)">
</text><text class="terminal-3333508425-r4" x="24.4" y="215.2" textLength="12.2" clip-path="url(#terminal-3333508425-line-8)">▊</text><text class="terminal-3333508425-r5" x="36.6" y="215.2" textLength="1390.8" clip-path="url(#terminal-3333508425-line-8)">▁▁▁▁▁▁▁▁▁▁▁▁▁▁▁▁▁▁▁▁▁▁▁▁▁▁▁▁▁▁▁▁▁▁▁▁▁▁▁▁▁▁▁▁▁▁▁▁▁▁▁▁▁▁▁▁▁▁▁▁▁▁▁▁▁▁▁▁▁▁▁▁▁▁▁▁▁▁▁▁▁▁▁▁▁▁▁▁▁▁▁▁▁▁▁▁▁▁▁▁▁▁▁▁▁▁▁▁▁▁▁▁▁▁</text><text class="terminal-3333508425-r5" x="1427.4" y="215.2" textLength="12.2" clip-path="url(#terminal-3333508425-line-8)">▎</text><text class="terminal-3333508425-r1" x="1464" y="215.2" textLength="12.2" clip-path="url(#terminal-3333508425-line-8)">
</text><text class="terminal-3333508425-r1" x="1464" y="239.6" textLength="12.2" clip-path="url(#terminal-3333508425-line-9)">
</text><text class="terminal-3333508425-r1" x="1464" y="264" textLength="12.2" clip-path="url(#terminal-3333508425-line-10)">
</text><text class="terminal-3333508425-r6" x="24.4" y="288.4" textLength="183" clip-path="url(#terminal-3333508425-line-11)">Justification&#160;&#160;</text><text class="terminal-3333508425-r7" x="207.4" y="288.4" textLength="427" clip-path="url(#terminal-3333508425-line-11)">(required,&#160;shared&#160;across&#160;all&#160;roles)</text><text class="terminal-3333508425-r1" x="1464" y="288.4" textLength="12.2" clip-path="url(#terminal-3333508425-line-11)">
</text><text class="terminal-3333508425-r4" x="24.4" y="312.8" textLength="12.2" clip-path="url(#terminal-3333508425-line-12)">▊</text><text class="terminal-3333508425-r8" x="36.6" y="312.8" textLength="1390.8" clip-path="url(#terminal-3333508425-line-12)">▔▔▔▔▔▔▔▔▔▔▔▔▔▔▔▔▔▔▔▔▔▔▔▔▔▔▔▔▔▔▔▔▔▔▔▔▔▔▔▔▔▔▔▔▔▔▔▔▔▔▔▔▔▔▔▔▔▔▔▔▔▔▔▔▔▔▔▔▔▔▔▔▔▔▔▔▔▔▔▔▔▔▔▔▔▔▔▔▔▔▔▔▔▔▔▔▔▔▔▔▔▔▔▔▔▔▔▔▔▔▔▔▔▔</text><text class="terminal-3333508425-r8" x="1427.4" y="312.8" textLength="12.2" clip-path="url(#terminal-3333508425-line-12)">▎</text><text class="terminal-3333508425-r1" x="1464" y="312.8" textLength="12.2" clip-path="url(#terminal-3333508425-line-12)">
</text><text class="terminal-3333508425-r4" x="24.4" y="337.2" textLength="12.2" clip-path="url(#terminal-3333508425-line-13)">▊</text><text class="terminal-3333508425-r2" x="61" y="337.2" textLength="488" clip-path="url(#terminal-3333508425-line-13)">Break-glass&#160;access&#160;—&#160;production&#160;incident</text><text class="terminal-3333508425-r8" x="1427.4" y="337.2" textLength="12.2" clip-path="url(#terminal-3333508425-line-13)">▎</text><text class="terminal-3333508425-r1" x="1464" y="337.2" textLength="12.2" clip-path="url(#terminal-3333508425-line-13)">
</text><text class="terminal-3333508425-r4" x="24.4" y="361.6" textLength="12.2" clip-path="url(#terminal-3333508425-line-14)">▊</text><text class="terminal-3333508425-r8" x="36.6" y="361.6" textLength="1390.8" clip-path="url(#terminal-3333508425-line-14)">▁▁▁▁▁▁▁▁▁▁▁▁▁▁▁▁▁▁▁▁▁▁▁▁▁▁▁▁▁▁▁▁▁▁▁▁▁▁▁▁▁▁▁▁▁▁▁▁▁▁▁▁▁▁▁▁▁▁▁▁▁▁▁▁▁▁▁▁▁▁▁▁▁▁▁▁▁▁▁▁▁▁▁▁▁▁▁▁▁▁▁▁▁▁▁▁▁▁▁▁▁▁▁▁▁▁▁▁▁▁▁▁▁▁</text><text class="terminal-3333508425-r8" x="1427.4" y="361.6" textLength="12.2" clip-path="url(#terminal-3333508425-line-14)">▎</text><text class="terminal-3333508425-r1" x="1464" y="361.6" textLength="12.2" clip-path="url(#terminal-3333508425-line-14)">
</text><text class="terminal-3333508425-r1" x="1464" y="386" textLength="12.2" clip-path="url(#terminal-3333508425-line-15)">
</text><text class="terminal-3333508425-r6" x="24.4" y="410.4" textLength="97.6" clip-path="url(#terminal-3333508425-line-16)">Duration</text><text class="terminal-3333508425-r1" x="1464" y="410.4" textLength="12.2" clip-path="url(#terminal-3333508425-line-16)">
</text><text class="terminal-3333508425-r4" x="24.4" y="434.8" textLength="12.2" clip-path="url(#terminal-3333508425-line-17)">▊</text><text class="terminal-3333508425-r10" x="36.6" y="434.8" textLength="1390.8" clip-path="url(#terminal-3333508425-line-17)">▔▔▔▔▔▔▔▔▔▔▔▔▔▔▔▔▔▔▔▔▔▔▔▔▔▔▔▔▔▔▔▔▔▔▔▔▔▔▔▔▔▔▔▔▔▔▔▔▔▔▔▔▔▔▔▔▔▔▔▔▔▔▔▔▔▔▔▔▔▔▔▔▔▔▔▔▔▔▔▔▔▔▔▔▔▔▔▔▔▔▔▔▔▔▔▔▔▔▔▔▔▔▔▔▔▔▔▔▔▔▔▔▔▔</text><text class="terminal-3333508425-r10" x="1427.4" y="434.8" textLength="12.2" clip-path="url(#terminal-3333508425-line-17)">▎</text><text class="terminal-3333508425-r1" x="1464" y="434.8" textLength="12.2" clip-path="url(#terminal-3333508425-line-17)">
</text><text class="terminal-3333508425-r4" x="24.4" y="459.2" textLength="12.2" clip-path="url(#terminal-3333508425-line-18)">▊</text><text class="terminal-3333508425-r2" x="61" y="459.2" textLength="73.2" clip-path="url(#terminal-3333508425-line-18)">1&#160;hour</text><text class="terminal-3333508425-r11" x="1390.8" y="459.2" textLength="12.2" clip-path="url(#terminal-3333508425-line-18)">▼</text><text class="terminal-3333508425-r10" x="1427.4" y="459.2" textLength="12.2" clip-path="url(#terminal-3333508425-line-18)">▎</text><text class="terminal-3333508425-r1" x="1464" y="459.2" textLength="12.2" clip-path="url(#terminal-3333508425-line-18)">
</text><text class="terminal-3333508425-r4" x="24.4" y="483.6" textLength="12.2" clip-path="url(#terminal-3333508425-line-19)">▊</text><text class="terminal-3333508425-r10" x="36.6" y="483.6" textLength="1390.8" clip-path="url(#terminal-3333508425-line-19)">▁▁▁▁▁▁▁▁▁▁▁▁▁▁▁▁▁▁▁▁▁▁▁▁▁▁▁▁▁▁▁▁▁▁▁▁▁▁▁▁▁▁▁▁▁▁▁▁▁▁▁▁▁▁▁▁▁▁▁▁▁▁▁▁▁▁▁▁▁▁▁▁▁▁▁▁▁▁▁▁▁▁▁▁▁▁▁▁▁▁▁▁▁▁▁▁▁▁▁▁▁▁▁▁▁▁▁▁▁▁▁▁▁▁</text><text class="terminal-3333508425-r10" x="1427.4" y="483.6" textLength="12.2" clip-path="url(#terminal-3333508425-line-19)">▎</text><text class="terminal-3333508425-r1" x="1464" y="483.6" textLength="12.2" clip-path="url(#terminal-3333508425-line-19)">
</text><text class="terminal-3333508425-r1" x="1464" y="508" textLength="12.2" clip-path="url(#terminal-3333508425-line-20)">
</text><text class="terminal-3333508425-r1" x="1464" y="532.4" textLength="12.2" clip-path="url(#terminal-3333508425-line-21)">
</text><text class="terminal-3333508425-r1" x="1464" y="556.8" textLength="12.2" clip-path="url(#terminal-3333508425-line-22)">
</text><text class="terminal-3333508425-r1" x="1464" y="581.2" textLength="12.2" clip-path="url(#terminal-3333508425-line-23)">
</text><text class="terminal-3333508425-r1" x="1464" y="605.6" textLength="12.2" clip-path="url(#terminal-3333508425-line-24)">
</text><text class="terminal-3333508425-r1" x="1464" y="630" textLength="12.2" clip-path="url(#terminal-3333508425-line-25)">
</text><text class="terminal-3333508425-r1" x="1464" y="654.4" textLength="12.2" clip-path="url(#terminal-3333508425-line-26)">
</text><text class="terminal-3333508425-r1" x="1464" y="678.8" textLength="12.2" clip-path="url(#terminal-3333508425-line-27)">
</text><text class="terminal-3333508425-r1" x="1464" y="703.2" textLength="12.2" clip-path="url(#terminal-3333508425-line-28)">
</text><text class="terminal-3333508425-r1" x="1464" y="727.6" textLength="12.2" clip-path="url(#terminal-3333508425-line-29)">
</text><text class="terminal-3333508425-r1" x="1464" y="752" textLength="12.2" clip-path="url(#terminal-3333508425-line-30)">
</text><text class="terminal-3333508425-r12" x="24.4" y="776.4" textLength="195.2" clip-path="url(#terminal-3333508425-line-31)">▔▔▔▔▔▔▔▔▔▔▔▔▔▔▔▔</text><text class="terminal-3333508425-r13" x="244" y="776.4" textLength="195.2" clip-path="url(#terminal-3333508425-line-31)">▔▔▔▔▔▔▔▔▔▔▔▔▔▔▔▔</text><text class="terminal-3333508425-r1" x="1464" y="776.4" textLength="12.2" clip-path="url(#terminal-3333508425-line-31)">
</text><text class="terminal-3333508425-r14" x="61" y="800.8" textLength="122" clip-path="url(#terminal-3333508425-line-32)">&#160;Activate&#160;</text><text class="terminal-3333508425-r3" x="305" y="800.8" textLength="73.2" clip-path="url(#terminal-3333508425-line-32)">&#160;Back&#160;</text><text class="terminal-3333508425-r1" x="1464" y="800.8" textLength="12.2" clip-path="url(#terminal-3333508425-line-32)">
</text><text class="terminal-3333508425-r15" x="24.4" y="825.2" textLength="195.2" clip-path="url(#terminal-3333508425-line-33)">▁▁▁▁▁▁▁▁▁▁▁▁▁▁▁▁</text><text class="terminal-3333508425-r16" x="244" y="825.2" textLength="195.2" clip-path="url(#terminal-3333508425-line-33)">▁▁▁▁▁▁▁▁▁▁▁▁▁▁▁▁</text><text class="terminal-3333508425-r1" x="1464" y="825.2" textLength="12.2" clip-path="url(#terminal-3333508425-line-33)">
</text><text class="terminal-3333508425-r1" x="1464" y="849.6" textLength="12.2" clip-path="url(#terminal-3333508425-line-34)">
</text><text class="terminal-3333508425-r17" x="0" y="874" textLength="61" clip-path="url(#terminal-3333508425-line-35)">&#160;esc&#160;</text><text class="terminal-3333508425-r2" x="61" y="874" textLength="61" clip-path="url(#terminal-3333508425-line-35)">Back&#160;</text>
    </g>
    </g>
</svg>
